<?xml version="1.0" encoding="UTF-8"?>
<svg id="Layer_1" xmlns="http://www.w3.org/2000/svg" version="1.1" viewBox="0 0 250 250">
  <!-- Generator: Adobe Illustrator 30.3.0, SVG Export Plug-In . SVG Version: 2.1.3 Build 182)  -->
  <defs>
    <style>
      .st0 {
        fill: #fff;
        stroke: #fff;
        stroke-miterlimit: 10;
        stroke-width: .5px;
      }
    </style>
  </defs>
  <path class="st0" d="M161.18,224.99c-4.84,0-9.35,2.53-13.71,4.98-3.87,2.18-7.55,4.26-10.92,4.26-2.12,0-4.32-.8-6.66-1.95l18.46-49.62c2.06-5.54.03-11.58-4.96-14.76l-9.58-6.07-2.93-40.66c-.48-6.43-5.87-11.48-12.33-11.48h-62.46c-6.46,0-11.87,5.04-12.33,11.48l-2.93,40.66-9.58,6.07c-4.98,3.14-7.02,9.21-4.96,14.76l18.46,49.62c-2.34,1.14-4.54,1.95-6.66,1.95-3.34,0-7.02-2.06-10.92-4.26-4.34-2.45-8.85-4.98-13.71-4.98-1.53,0-2.82,1.28-2.82,2.84s1.28,2.84,2.84,2.84c3.34,0,7.02,2.06,10.92,4.26,4.34,2.45,8.85,4.98,13.69,4.98s9.35-2.53,13.71-4.98c3.87-2.18,7.55-4.26,10.92-4.26s7.02,2.06,10.92,4.26c4.33,2.45,8.84,4.98,13.68,4.98s9.35-2.53,13.71-4.98c3.87-2.18,7.55-4.26,10.92-4.26s7.02,2.06,10.92,4.26c4.34,2.45,8.85,4.98,13.71,4.98s9.35-2.53,13.71-4.98c3.87-2.18,7.55-4.26,10.92-4.26,1.59,0,2.84-1.28,2.84-2.84-.03-1.56-1.31-2.84-2.87-2.84ZM49.47,121.57c.25-3.45,3.18-6.18,6.62-6.18h62.49c3.48,0,6.37,2.7,6.62,6.18l2.62,36.45-33.89-21.49c-4.14-2.62-9.1-2.62-13.23,0l-33.89,21.49,2.66-36.45ZM62.72,224.99c-4.54,0-8.8,2.23-12.89,4.54l-18.19-48.87c-1.11-2.98,0-6.23,2.68-7.94l49.46-31.37c.22-.14.48-.28.73-.39v92.8c-2.57-.73-5.23-2.23-8.05-3.82-4.38-2.41-8.89-4.95-13.74-4.95h0ZM111.95,224.99c-4.84,0-9.35,2.53-13.71,4.98-2.82,1.59-5.51,3.09-8.05,3.82v-92.84c.26.11.49.25.74.39l49.46,31.36c2.68,1.7,3.79,4.96,2.68,7.94l-18.19,48.87c-4.16-2.3-8.39-4.52-12.93-4.52h0ZM224.7,56.61c4.21,0,7.6-3.43,7.6-7.6v-9.75h4.66c4.21,0,7.6-3.43,7.6-7.6v-5.79c0-4.21-3.43-7.6-7.6-7.6h-4.66v-4.63c0-4.2-3.4-7.62-7.6-7.62h-35.39c-4.21,0-7.6,3.43-7.6,7.6v4.62H50.78c-2.25,0-4.18,1.36-4.93,3.48-.75,2.12-.11,4.39,1.64,5.82l13.76,11.08c.5.41,1.14.64,1.78.64h11.22v6.35c0,1.42.41,2.7,1.09,3.84l-18.76,17.76c-1.48,1.39-2.39,3.34-2.39,5.51v15.23c0,4.21,3.43,7.6,7.6,7.6h48.26c4.21,0,7.6-3.43,7.6-7.6v-15.23c0-2.18-.91-4.12-2.39-5.51l-18.76-17.76c.66-1.14,1.09-2.45,1.09-3.84v-6.35h84.12v9.75c0,4.21,3.43,7.6,7.6,7.6h7.18v108.18h-17.07c-5.51,0-10,4.48-10,10v55.14c0,5.51,4.48,10,10,10h55.14c5.51,0,10-4.48,10-10v-55.14c0-5.51-4.48-10-10-10h-17.07V56.61s7.2,0,7.2,0ZM236.95,23.95c1.06,0,1.89.86,1.89,1.89v5.79c0,1.06-.86,1.89-1.89,1.89h-4.64v-9.6h4.64v.03ZM91.88,52.94l12.89,12.19h-37.68l12.89-12.19c.61.16,1.25.28,1.93.28h8.1c.61-.01,1.25-.12,1.87-.28h0ZM111.95,87.94c0,1.06-.86,1.89-1.89,1.89h-48.25c-1.06,0-1.89-.86-1.89-1.89v-15.23c0-1.06.86-1.89,1.89-1.89h48.25c1.06-.01,1.89.85,1.89,1.88v15.24ZM91.88,45.61c0,1.06-.86,1.89-1.89,1.89h-8.1c-1.06,0-1.89-.86-1.89-1.89v-6.35h11.89v6.35ZM64.06,33.56l-11.94-9.6h129.59v9.6h-117.65ZM187.42,49.01V13.62c0-1.06.86-1.89,1.89-1.89h35.39c1.06,0,1.89.86,1.89,1.89v35.39c0,1.06-.86,1.89-1.89,1.89h-35.39c-1.06.02-1.89-.84-1.89-1.89ZM238.84,174.78v55.14c0,2.37-1.93,4.29-4.29,4.29h-55.14c-2.37,0-4.29-1.93-4.29-4.29v-55.14c0-2.37,1.93-4.29,4.29-4.29h55.14c2.37.02,4.29,1.95,4.29,4.29ZM211.8,164.82h-9.6V56.62h9.6v108.2ZM73.67,79.59v1.53c0,1.59-1.28,2.84-2.84,2.84s-2.84-1.28-2.84-2.84v-1.53c0-1.59,1.28-2.84,2.84-2.84,1.57-.01,2.84,1.25,2.84,2.84ZM88.79,79.59v1.53c0,1.59-1.28,2.84-2.84,2.84s-2.84-1.28-2.84-2.84v-1.53c0-1.59,1.28-2.84,2.84-2.84,1.57-.03,2.84,1.25,2.84,2.84ZM103.9,79.59v1.53c0,1.59-1.28,2.84-2.84,2.84s-2.84-1.28-2.84-2.84v-1.53c0-1.59,1.28-2.84,2.84-2.84,1.57-.03,2.84,1.25,2.84,2.84Z"/>
</svg>